<svg width="324" height="75" viewBox="0 0 324 75" fill="none" xmlns="http://www.w3.org/2000/svg">
<rect y="28.083" width="104.9" height="17.0487" rx="8.52437" fill="white"/>
<path d="M137.765 40.9C137.765 37.9333 138.265 35.3667 139.265 33.2C140.298 31 141.698 29.3333 143.465 28.2C145.231 27.0333 147.215 26.45 149.415 26.45C151.248 26.45 152.831 26.8333 154.165 27.6C155.498 28.3333 156.515 29.35 157.215 30.65V26.8H168.265V55H157.215V51.15C156.515 52.45 155.498 53.4833 154.165 54.25C152.831 54.9833 151.248 55.35 149.415 55.35C147.215 55.35 145.231 54.7833 143.465 53.65C141.698 52.4833 140.298 50.8167 139.265 48.65C138.265 46.45 137.765 43.8667 137.765 40.9ZM157.215 40.9C157.215 39.4 156.831 38.2333 156.065 37.4C155.298 36.5667 154.315 36.15 153.115 36.15C151.915 36.15 150.931 36.5667 150.165 37.4C149.398 38.2333 149.015 39.4 149.015 40.9C149.015 42.4 149.398 43.5667 150.165 44.4C150.931 45.2333 151.915 45.65 153.115 45.65C154.315 45.65 155.298 45.2333 156.065 44.4C156.831 43.5667 157.215 42.4 157.215 40.9ZM192.999 26.6C196.232 26.6 198.749 27.6833 200.549 29.85C202.382 32.0167 203.299 34.95 203.299 38.65V55H192.249V40.05C192.249 38.7167 191.882 37.6667 191.149 36.9C190.449 36.1 189.499 35.7 188.299 35.7C187.066 35.7 186.099 36.1 185.399 36.9C184.699 37.6667 184.349 38.7167 184.349 40.05V55H173.249V18H184.349V31.1C185.216 29.7667 186.366 28.6833 187.799 27.85C189.266 27.0167 190.999 26.6 192.999 26.6ZM206.612 40.9C206.612 37.9333 207.112 35.3667 208.112 33.2C209.146 31 210.546 29.3333 212.312 28.2C214.079 27.0333 216.062 26.45 218.262 26.45C220.096 26.45 221.679 26.8333 223.012 27.6C224.346 28.3333 225.362 29.35 226.062 30.65V26.8H237.112V55H226.062V51.15C225.362 52.45 224.346 53.4833 223.012 54.25C221.679 54.9833 220.096 55.35 218.262 55.35C216.062 55.35 214.079 54.7833 212.312 53.65C210.546 52.4833 209.146 50.8167 208.112 48.65C207.112 46.45 206.612 43.8667 206.612 40.9ZM226.062 40.9C226.062 39.4 225.679 38.2333 224.912 37.4C224.146 36.5667 223.162 36.15 221.962 36.15C220.762 36.15 219.779 36.5667 219.012 37.4C218.246 38.2333 217.862 39.4 217.862 40.9C217.862 42.4 218.246 43.5667 219.012 44.4C219.779 45.2333 220.762 45.65 221.962 45.65C223.162 45.65 224.146 45.2333 224.912 44.4C225.679 43.5667 226.062 42.4 226.062 40.9ZM240.597 40.9C240.597 37.9333 241.097 35.3667 242.097 33.2C243.13 31 244.53 29.3333 246.297 28.2C248.063 27.0333 250.047 26.45 252.247 26.45C254.08 26.45 255.663 26.8333 256.997 27.6C258.33 28.3333 259.347 29.35 260.047 30.65V26.8H271.097V55H260.047V51.15C259.347 52.45 258.33 53.4833 256.997 54.25C255.663 54.9833 254.08 55.35 252.247 55.35C250.047 55.35 248.063 54.7833 246.297 53.65C244.53 52.4833 243.13 50.8167 242.097 48.65C241.097 46.45 240.597 43.8667 240.597 40.9ZM260.047 40.9C260.047 39.4 259.663 38.2333 258.897 37.4C258.13 36.5667 257.147 36.15 255.947 36.15C254.747 36.15 253.763 36.5667 252.997 37.4C252.23 38.2333 251.847 39.4 251.847 40.9C251.847 42.4 252.23 43.5667 252.997 44.4C253.763 45.2333 254.747 45.65 255.947 45.65C257.147 45.65 258.13 45.2333 258.897 44.4C259.663 43.5667 260.047 42.4 260.047 40.9ZM287.181 16.35C290.881 16.35 293.848 17.2833 296.081 19.15C298.348 20.9833 299.481 23.6833 299.481 27.25C299.481 30.1833 298.481 32.55 296.481 34.35C294.515 36.15 291.931 37.0833 288.731 37.15L288.431 40.7H278.631L278.331 30.1H282.531C284.498 30.1 285.998 29.8833 287.031 29.45C288.098 29.0167 288.631 28.3167 288.631 27.35C288.631 26.7167 288.465 26.2333 288.131 25.9C287.831 25.5333 287.415 25.35 286.881 25.35C286.215 25.35 285.715 25.5667 285.381 26C285.081 26.4 284.931 26.9333 284.931 27.6H274.481C274.381 25.5333 274.781 23.65 275.681 21.95C276.615 20.25 278.048 18.9 279.981 17.9C281.915 16.8667 284.315 16.35 287.181 16.35ZM283.681 55.4C281.748 55.4 280.198 54.8833 279.031 53.85C277.865 52.8167 277.281 51.5167 277.281 49.95C277.281 48.35 277.865 47.0333 279.031 46C280.198 44.9333 281.748 44.4 283.681 44.4C285.581 44.4 287.115 44.9333 288.281 46C289.448 47.0333 290.031 48.35 290.031 49.95C290.031 51.5167 289.448 52.8167 288.281 53.85C287.115 54.8833 285.581 55.4 283.681 55.4ZM317.935 17.25L316.635 40.95H307.135L305.835 17.25H317.935ZM311.885 55.4C309.952 55.4 308.402 54.8833 307.235 53.85C306.069 52.8167 305.485 51.5167 305.485 49.95C305.485 48.35 306.069 47.0333 307.235 46C308.402 44.9333 309.952 44.4 311.885 44.4C313.785 44.4 315.319 44.9333 316.485 46C317.652 47.0333 318.235 48.35 318.235 49.95C318.235 51.5167 317.652 52.8167 316.485 53.85C315.319 54.8833 313.785 55.4 311.885 55.4Z" fill="white"/>
</svg>
