<svg width="301" height="75" viewBox="0 0 301 75" fill="none" xmlns="http://www.w3.org/2000/svg">
<path d="M0 33.7646C0 28.1767 6.13611 24.7296 11.079 27.3357C41.9138 43.5931 63.0733 42.1063 93.9311 26.7803C98.9179 24.3035 104.9 27.8299 104.9 33.398V33.398C104.9 36.2357 103.256 38.8264 100.67 39.9951C62.6319 57.188 40.035 58.5754 3.79716 40.037C1.44898 38.8357 0 36.4022 0 33.7646V33.7646Z" fill="white"/>
<path d="M149.415 26.45C151.248 26.45 152.832 26.8333 154.165 27.6C155.498 28.3333 156.515 29.35 157.215 30.65V26.8H168.265V54.5C168.265 57.1333 167.782 59.5333 166.815 61.7C165.848 63.8667 164.282 65.6 162.115 66.9C159.982 68.2 157.232 68.85 153.865 68.85C149.332 68.85 145.732 67.7833 143.065 65.65C140.432 63.55 138.932 60.6833 138.565 57.05H149.465C149.765 58.5167 150.965 59.25 153.065 59.25C154.365 59.25 155.382 58.9167 156.115 58.25C156.848 57.5833 157.215 56.3333 157.215 54.5V51.15C156.515 52.45 155.498 53.4833 154.165 54.25C152.832 54.9833 151.248 55.35 149.415 55.35C147.215 55.35 145.232 54.7833 143.465 53.65C141.698 52.4833 140.298 50.8167 139.265 48.65C138.265 46.45 137.765 43.8667 137.765 40.9C137.765 37.9333 138.265 35.3667 139.265 33.2C140.298 31 141.698 29.3333 143.465 28.2C145.232 27.0333 147.215 26.45 149.415 26.45ZM157.215 40.9C157.215 39.4 156.832 38.2333 156.065 37.4C155.298 36.5667 154.315 36.15 153.115 36.15C151.915 36.15 150.932 36.5667 150.165 37.4C149.398 38.2333 149.015 39.4 149.015 40.9C149.015 42.4 149.398 43.5667 150.165 44.4C150.932 45.2333 151.915 45.65 153.115 45.65C154.315 45.65 155.298 45.2333 156.065 44.4C156.832 43.5667 157.215 42.4 157.215 40.9ZM186.649 55.35C183.816 55.35 181.266 54.7667 178.999 53.6C176.733 52.4333 174.949 50.7667 173.649 48.6C172.383 46.4 171.749 43.8333 171.749 40.9C171.749 37.9667 172.383 35.4167 173.649 33.25C174.949 31.05 176.733 29.3667 178.999 28.2C181.266 27.0333 183.816 26.45 186.649 26.45C189.483 26.45 192.033 27.0333 194.299 28.2C196.566 29.3667 198.333 31.05 199.599 33.25C200.899 35.4167 201.549 37.9667 201.549 40.9C201.549 43.8333 200.899 46.4 199.599 48.6C198.333 50.7667 196.566 52.4333 194.299 53.6C192.033 54.7667 189.483 55.35 186.649 55.35ZM186.649 45.75C187.683 45.75 188.549 45.35 189.249 44.55C189.949 43.7167 190.299 42.5 190.299 40.9C190.299 39.3 189.949 38.1 189.249 37.3C188.549 36.4667 187.683 36.05 186.649 36.05C185.616 36.05 184.749 36.4667 184.049 37.3C183.349 38.1 182.999 39.3 182.999 40.9C182.999 42.5 183.333 43.7167 183.999 44.55C184.699 45.35 185.583 45.75 186.649 45.75ZM226.932 55.35C224.099 55.35 221.549 54.7667 219.282 53.6C217.016 52.4333 215.232 50.7667 213.932 48.6C212.666 46.4 212.032 43.8333 212.032 40.9C212.032 37.9667 212.666 35.4167 213.932 33.25C215.232 31.05 217.016 29.3667 219.282 28.2C221.549 27.0333 224.099 26.45 226.932 26.45C229.766 26.45 232.316 27.0333 234.582 28.2C236.849 29.3667 238.616 31.05 239.882 33.25C241.182 35.4167 241.832 37.9667 241.832 40.9C241.832 43.8333 241.182 46.4 239.882 48.6C238.616 50.7667 236.849 52.4333 234.582 53.6C232.316 54.7667 229.766 55.35 226.932 55.35ZM226.932 45.75C227.966 45.75 228.832 45.35 229.532 44.55C230.232 43.7167 230.582 42.5 230.582 40.9C230.582 39.3 230.232 38.1 229.532 37.3C228.832 36.4667 227.966 36.05 226.932 36.05C225.899 36.05 225.032 36.4667 224.332 37.3C223.632 38.1 223.282 39.3 223.282 40.9C223.282 42.5 223.616 43.7167 224.282 44.55C224.982 45.35 225.866 45.75 226.932 45.75ZM265.07 26.6C268.303 26.6 270.82 27.6833 272.62 29.85C274.453 32.0167 275.37 34.95 275.37 38.65V55H264.32V40.05C264.32 38.7167 263.953 37.6667 263.22 36.9C262.52 36.1 261.57 35.7 260.37 35.7C259.136 35.7 258.17 36.1 257.47 36.9C256.77 37.6667 256.42 38.7167 256.42 40.05V55H245.32V26.8H256.42V31.1C257.286 29.7667 258.436 28.6833 259.87 27.85C261.336 27.0167 263.07 26.6 265.07 26.6ZM295.133 17.25L293.833 40.95H284.333L283.033 17.25H295.133ZM289.083 55.4C287.15 55.4 285.6 54.8833 284.433 53.85C283.266 52.8167 282.683 51.5167 282.683 49.95C282.683 48.35 283.266 47.0333 284.433 46C285.6 44.9333 287.15 44.4 289.083 44.4C290.983 44.4 292.516 44.9333 293.683 46C294.85 47.0333 295.433 48.35 295.433 49.95C295.433 51.5167 294.85 52.8167 293.683 53.85C292.516 54.8833 290.983 55.4 289.083 55.4Z" fill="white"/>
</svg>
