<svg width="329" height="75" viewBox="0 0 329 75" fill="none" xmlns="http://www.w3.org/2000/svg">
<rect y="41.9486" width="104.9" height="17.0487" rx="8.52437" transform="rotate(-15 0 41.9486)" fill="white"/>
<path d="M159.434 26.6C162.667 26.6 165.184 27.6833 166.984 29.85C168.817 32.0167 169.734 34.95 169.734 38.65V55H158.684V40.05C158.684 38.7167 158.317 37.6667 157.584 36.9C156.884 36.1 155.934 35.7 154.734 35.7C153.501 35.7 152.534 36.1 151.834 36.9C151.134 37.6667 150.784 38.7167 150.784 40.05V55H139.684V18H150.784V31.1C151.651 29.7667 152.801 28.6833 154.234 27.85C155.701 27.0167 157.434 26.6 159.434 26.6ZM212.197 26.6C215.797 26.6 218.58 27.6833 220.547 29.85C222.547 32.0167 223.547 34.95 223.547 38.65V55H212.497V40.05C212.497 38.85 212.13 37.9167 211.397 37.25C210.697 36.55 209.747 36.2 208.547 36.2C207.314 36.2 206.347 36.55 205.647 37.25C204.947 37.9167 204.597 38.85 204.597 40.05V55H193.547V40.05C193.547 38.85 193.18 37.9167 192.447 37.25C191.747 36.55 190.797 36.2 189.597 36.2C188.364 36.2 187.397 36.55 186.697 37.25C185.997 37.9167 185.647 38.85 185.647 40.05V55H174.547V26.8H185.647V30.6C186.447 29.4 187.53 28.4333 188.897 27.7C190.297 26.9667 191.93 26.6 193.797 26.6C195.83 26.6 197.63 27.05 199.197 27.95C200.764 28.8167 202.014 30.05 202.947 31.65C203.98 30.1833 205.297 28.9833 206.897 28.05C208.497 27.0833 210.264 26.6 212.197 26.6ZM266.006 26.6C269.606 26.6 272.389 27.6833 274.356 29.85C276.356 32.0167 277.356 34.95 277.356 38.65V55H266.306V40.05C266.306 38.85 265.939 37.9167 265.206 37.25C264.506 36.55 263.556 36.2 262.356 36.2C261.122 36.2 260.156 36.55 259.456 37.25C258.756 37.9167 258.406 38.85 258.406 40.05V55H247.356V40.05C247.356 38.85 246.989 37.9167 246.256 37.25C245.556 36.55 244.606 36.2 243.406 36.2C242.172 36.2 241.206 36.55 240.506 37.25C239.806 37.9167 239.456 38.85 239.456 40.05V55H228.356V26.8H239.456V30.6C240.256 29.4 241.339 28.4333 242.706 27.7C244.106 26.9667 245.739 26.6 247.606 26.6C249.639 26.6 251.439 27.05 253.006 27.95C254.572 28.8167 255.822 30.05 256.756 31.65C257.789 30.1833 259.106 28.9833 260.706 28.05C262.306 27.0833 264.072 26.6 266.006 26.6ZM287.664 55.4C285.731 55.4 284.181 54.8833 283.014 53.85C281.848 52.8167 281.264 51.5167 281.264 49.95C281.264 48.35 281.848 47.0333 283.014 46C284.181 44.9333 285.731 44.4 287.664 44.4C289.564 44.4 291.098 44.9333 292.264 46C293.431 47.0333 294.014 48.35 294.014 49.95C294.014 51.5167 293.431 52.8167 292.264 53.85C291.098 54.8833 289.564 55.4 287.664 55.4ZM303.631 55.4C301.698 55.4 300.148 54.8833 298.981 53.85C297.814 52.8167 297.231 51.5167 297.231 49.95C297.231 48.35 297.814 47.0333 298.981 46C300.148 44.9333 301.698 44.4 303.631 44.4C305.531 44.4 307.064 44.9333 308.231 46C309.398 47.0333 309.981 48.35 309.981 49.95C309.981 51.5167 309.398 52.8167 308.231 53.85C307.064 54.8833 305.531 55.4 303.631 55.4ZM319.598 55.4C317.665 55.4 316.115 54.8833 314.948 53.85C313.781 52.8167 313.198 51.5167 313.198 49.95C313.198 48.35 313.781 47.0333 314.948 46C316.115 44.9333 317.665 44.4 319.598 44.4C321.498 44.4 323.031 44.9333 324.198 46C325.365 47.0333 325.948 48.35 325.948 49.95C325.948 51.5167 325.365 52.8167 324.198 53.85C323.031 54.8833 321.498 55.4 319.598 55.4Z" fill="white"/>
</svg>
