<svg width="254" height="75" viewBox="0 0 254 75" fill="none" xmlns="http://www.w3.org/2000/svg">
<path d="M171.35 26.8L153.3 68.5H141.15L148.25 53.6L136.5 26.8H148.85L154.15 41.1L159.1 26.8H171.35ZM200.638 40.65C200.638 41.4167 200.588 42.15 200.488 42.85H182.638C182.805 45.2833 183.821 46.5 185.688 46.5C186.888 46.5 187.755 45.95 188.288 44.85H200.038C199.638 46.85 198.788 48.65 197.488 50.25C196.221 51.8167 194.605 53.0667 192.638 54C190.705 54.9 188.571 55.35 186.238 55.35C183.438 55.35 180.938 54.7667 178.738 53.6C176.571 52.4333 174.871 50.7667 173.638 48.6C172.438 46.4 171.838 43.8333 171.838 40.9C171.838 37.9667 172.438 35.4167 173.638 33.25C174.871 31.05 176.571 29.3667 178.738 28.2C180.938 27.0333 183.438 26.45 186.238 26.45C189.038 26.45 191.521 27.0333 193.688 28.2C195.888 29.3333 197.588 30.9667 198.788 33.1C200.021 35.2333 200.638 37.75 200.638 40.65ZM189.388 38C189.388 37.0667 189.088 36.3667 188.488 35.9C187.888 35.4 187.138 35.15 186.238 35.15C184.271 35.15 183.121 36.1 182.788 38H189.388ZM216.698 55.35C214.032 55.35 211.665 54.9167 209.598 54.05C207.565 53.1833 205.948 51.9833 204.748 50.45C203.548 48.9167 202.865 47.1833 202.698 45.25H213.348C213.482 46.0833 213.832 46.7 214.398 47.1C214.998 47.5 215.748 47.7 216.648 47.7C217.215 47.7 217.665 47.5833 217.998 47.35C218.332 47.0833 218.498 46.7667 218.498 46.4C218.498 45.7667 218.148 45.3167 217.448 45.05C216.748 44.7833 215.565 44.4833 213.898 44.15C211.865 43.75 210.182 43.3167 208.848 42.85C207.548 42.3833 206.398 41.5833 205.398 40.45C204.432 39.3167 203.948 37.75 203.948 35.75C203.948 34.0167 204.398 32.45 205.298 31.05C206.232 29.6167 207.598 28.5 209.398 27.7C211.198 26.8667 213.382 26.45 215.948 26.45C219.748 26.45 222.715 27.3833 224.848 29.25C227.015 31.1167 228.315 33.55 228.748 36.55H218.898C218.732 35.7833 218.382 35.2 217.848 34.8C217.315 34.3667 216.598 34.15 215.698 34.15C215.132 34.15 214.698 34.2667 214.398 34.5C214.098 34.7 213.948 35.0167 213.948 35.45C213.948 36.0167 214.298 36.45 214.998 36.75C215.698 37.0167 216.815 37.3 218.348 37.6C220.382 38 222.098 38.45 223.498 38.95C224.898 39.45 226.115 40.3167 227.148 41.55C228.182 42.75 228.698 44.4167 228.698 46.55C228.698 48.2167 228.215 49.7167 227.248 51.05C226.282 52.3833 224.882 53.4333 223.048 54.2C221.248 54.9667 219.132 55.35 216.698 55.35ZM248.054 17.25L246.754 40.95H237.254L235.954 17.25H248.054ZM242.004 55.4C240.07 55.4 238.52 54.8833 237.354 53.85C236.187 52.8167 235.604 51.5167 235.604 49.95C235.604 48.35 236.187 47.0333 237.354 46C238.52 44.9333 240.07 44.4 242.004 44.4C243.904 44.4 245.437 44.9333 246.604 46C247.77 47.0333 248.354 48.35 248.354 49.95C248.354 51.5167 247.77 52.8167 246.604 53.85C245.437 54.8833 243.904 55.4 242.004 55.4Z" fill="white"/>
<path d="M0.235199 26.3832C0.235199 21.764 6.35702 19.9067 9.1295 23.6014C40.9966 66.0689 62.6211 63.5874 95.8095 22.9776C98.8729 19.2292 105.136 21.3029 105.136 26.1439C105.136 27.3713 104.669 28.579 103.851 29.4945C63.832 74.3111 40.8784 77.2696 1.31164 29.3597C0.625728 28.5291 0.235199 27.4604 0.235199 26.3832Z" fill="white"/>
<path d="M0 24.7498C0 22.3135 2.26668 20.5081 4.64993 21.0139C41.287 28.7898 63.7422 28.2986 100.39 20.9451C102.764 20.4686 105 22.2753 105 24.6975C105 26.5936 103.601 28.2043 101.724 28.4694C63.0572 33.9292 40.376 34.1782 3.21739 28.5006C1.36702 28.2179 0 26.6217 0 24.7498Z" fill="white"/>
</svg>
